<svg xmlns="http://www.w3.org/2000/svg" viewBox="0 0 158.45 240.85"><defs><style>.cls-1{fill:#2b6ab0;}.cls-2{fill:#2d2e83;}.cls-3{fill:#2b8ac9;}</style></defs><title>Element 7</title><g id="Ebene_2" data-name="Ebene 2"><g id="Ebene_7" data-name="Ebene 7"><path class="cls-1" d="M58.54,202.79l24.3-29A126.12,126.12,0,0,1,39.55,98.76L2.42,105.31A163.29,163.29,0,0,0,58.54,202.79Z"/><path class="cls-2" d="M52.14,18.84,19.52,0A162.74,162.74,0,0,0,2.42,105.31l37.13-6.55A126.15,126.15,0,0,1,52.14,18.84Z"/><path class="cls-3" d="M81.75,219a162.83,162.83,0,0,0,76.7,21.85V203a126.17,126.17,0,0,1-75.61-29.14l-24.3,29A164.2,164.2,0,0,0,81.75,219Z"/></g></g></svg>