<svg xmlns="http://www.w3.org/2000/svg" viewBox="0 0 158.45 240.85"><defs><style>.cls-1{fill:#2e4b97;}.cls-2{fill:#2d2e83;}.cls-3{fill:#2b8ac9;}.cls-4{fill:#36a9e1;}.cls-5{fill:#2b6ab0;}</style></defs><title>Element 32</title><g id="Ebene_2" data-name="Ebene 2"><g id="Ebene_7" data-name="Ebene 7"><path class="cls-1" d="M12,138.86l35-14.27A125,125,0,0,1,38.11,87.3L.53,90.46A164.5,164.5,0,0,0,12,138.86Z"/><path class="cls-2" d="M52.14,18.84,19.52,0a162.7,162.7,0,0,0-19,90.46L38.11,87.3A126.36,126.36,0,0,1,52.14,18.84Z"/><path class="cls-3" d="M54.81,199.58,80,171.36a125.29,125.29,0,0,1-17.3-18.9l-30.32,22.6A162.42,162.42,0,0,0,54.81,199.58Z"/><path class="cls-4" d="M81.75,219a162.83,162.83,0,0,0,76.7,21.85V203A126.14,126.14,0,0,1,80,171.36L54.81,199.58A164.64,164.64,0,0,0,81.75,219Z"/><path class="cls-5" d="M32.34,175.06l30.32-22.6A125.85,125.85,0,0,1,47,124.59L12,138.86A163.12,163.12,0,0,0,32.34,175.06Z"/></g></g></svg>