<svg xmlns="http://www.w3.org/2000/svg" viewBox="0 0 110.08 167.31"><defs><style>.cls-1{fill:#2e4b97;}.cls-2{fill:#2b8ac9;}.cls-3{fill:#2d2e83;}.cls-4{fill:#2b6ab0;}.cls-5{fill:#36a9e1;}</style></defs><title>Element 26</title><g id="Ebene_2" data-name="Ebene 2"><g id="innen"><path class="cls-1" d="M28.46,73.47a87.14,87.14,0,0,1,.16-40.09L3.09,27.44a113.53,113.53,0,0,0-.14,52Z"/><path class="cls-2" d="M56.79,152.13c.76.44,1.53.86,2.3,1.28l12.69-23a86.84,86.84,0,0,1-33.86-33q-2.13-3.67-3.85-7.47L10.2,100.79A113,113,0,0,0,56.79,152.13Z"/><path class="cls-3" d="M36.22,13.09,13.56,0A113.41,113.41,0,0,0,3.09,27.44l25.53,5.94A87.61,87.61,0,0,1,36.22,13.09Z"/><path class="cls-4" d="M10.2,100.79,34.07,89.91a87.21,87.21,0,0,1-5.61-16.44L3,79.45A113.48,113.48,0,0,0,10.2,100.79Z"/><path class="cls-5" d="M110.08,167.31V141a87.87,87.87,0,0,1-38.3-10.58l-12.69,23A112.93,112.93,0,0,0,110.08,167.31Z"/></g></g></svg>