<svg xmlns="http://www.w3.org/2000/svg" viewBox="0 0 133.58 135.67"><defs><style>.cls-1{fill:#e30613;stroke:#e30613;}.cls-1,.cls-2,.cls-3{stroke-miterlimit:10;stroke-width:4px;}.cls-2{fill:#95c11f;stroke:#95c11f;}.cls-3{fill:#008d36;stroke:#008d36;}</style></defs><title>Element 22</title><g id="Ebene_2" data-name="Ebene 2"><g id="innen"><polygon class="cls-1" points="130.43 2.31 131.31 8.36 2 23.91 130.43 2.31"/><polygon class="cls-1" points="99.79 34.83 98.92 40.88 2 23.91 99.79 34.83"/><polygon class="cls-1" points="83.04 57.48 80.5 63.05 2 23.91 83.04 57.48"/><polygon class="cls-1" points="90.16 96.11 86.16 100.73 2 23.91 90.16 96.11"/><polygon class="cls-1" points="52.22 96.19 47.08 99.51 2 23.91 52.22 96.19"/><polygon class="cls-1" points="31.45 112.88 25.59 114.61 2 23.91 31.45 112.88"/><polygon class="cls-2" points="105.56 15.87 105.86 21.98 2 23.91 105.56 15.87"/><polygon class="cls-2" points="123.69 50.2 122.26 56.15 2 23.91 123.69 50.2"/><polygon class="cls-2" points="79.47 65.02 76.42 70.32 2 23.91 79.47 65.02"/><polygon class="cls-2" points="68.47 89.04 64.05 93.27 2 23.91 68.47 89.04"/><polygon class="cls-2" points="54.82 119.39 49.39 122.2 2 23.91 54.82 119.39"/><polygon class="cls-2" points="22.9 115.45 16.9 116.62 2 23.91 22.9 115.45"/><polygon class="cls-3" points="41.66 114.39 35.99 116.67 2 23.91 41.66 114.39"/><polygon class="cls-3" points="15.66 132.89 9.57 133.48 2 23.91 15.66 132.89"/></g></g></svg>