<svg xmlns="http://www.w3.org/2000/svg" viewBox="0 0 110.07 167.31"><defs><style>.cls-1{fill:#2b8ac9;}.cls-2{fill:#2d2e83;}.cls-3{fill:#36a9e1;}.cls-4{fill:#2e4b97;}</style></defs><title>Element 92</title><g id="Ebene_2" data-name="Ebene 2"><g id="innen"><path class="cls-1" d="M56.79,152.13c2,1.16,4,2.24,6.07,3.26L74.75,132a86.82,86.82,0,0,1-31.3-26.15L22.33,121.44A113.22,113.22,0,0,0,56.79,152.13Z"/><path class="cls-2" d="M36.22,13.09,13.56,0A113,113,0,0,0,.25,46.21l26.17,1.56A87.76,87.76,0,0,1,36.22,13.09Z"/><path class="cls-3" d="M110.07,167.31V141a87.82,87.82,0,0,1-35.32-9L62.86,155.39A112.78,112.78,0,0,0,110.07,167.31Z"/><path class="cls-4" d="M22.33,121.44l21.12-15.63a89.47,89.47,0,0,1-5.54-8.43A86.87,86.87,0,0,1,26.42,47.77L.25,46.21A114,114,0,0,0,22.33,121.44Z"/></g></g></svg>