<svg xmlns="http://www.w3.org/2000/svg" viewBox="0 0 110.08 167.31"><defs><style>.cls-1{fill:#2b6ab0;}.cls-2{fill:#2d2e83;}.cls-3{fill:#36a9e1;}.cls-4{fill:#2b8ac9;}.cls-5{fill:#2e4b97;}</style></defs><title>Element 17</title><g id="Ebene_2" data-name="Ebene 2"><g id="innen"><path class="cls-1" d="M4.42,85.09l25.17-7.31C29,75.6,28.42,73.4,28,71.2L2.33,76.55C2.91,79.43,3.61,82.27,4.42,85.09Z"/><path class="cls-2" d="M36.23,13.09,13.56,0A113,113,0,0,0,.05,50.35L26.26,51A87.64,87.64,0,0,1,36.23,13.09Z"/><path class="cls-3" d="M56.79,152.13a113,113,0,0,0,53.29,15.18V141a87.59,87.59,0,0,1-53.41-21L39.5,139.88A114.16,114.16,0,0,0,56.79,152.13Z"/><path class="cls-4" d="M39.5,139.88,56.67,120A87.63,87.63,0,0,1,29.59,77.78L4.42,85.09A113.26,113.26,0,0,0,39.5,139.88Z"/><path class="cls-5" d="M28,71.2A86.79,86.79,0,0,1,26.26,51L.05,50.35a113.72,113.72,0,0,0,2.28,26.2Z"/></g></g></svg>