<svg xmlns="http://www.w3.org/2000/svg" viewBox="0 0 110.07 167.31"><defs><style>.cls-1{fill:#2d2e83;}.cls-2{fill:#2b8ac9;}.cls-3{fill:#2e4b97;}</style></defs><title>Element 107</title><g id="Ebene_2" data-name="Ebene 2"><g id="innen"><path class="cls-1" d="M36.22,13.09,13.56,0A112.86,112.86,0,0,0,.7,41.14l26.06,2.74A87.92,87.92,0,0,1,36.22,13.09Z"/><path class="cls-2" d="M56.79,152.13a113,113,0,0,0,53.28,15.18V141a87.46,87.46,0,0,1-61.39-28.8L29.15,129.78A113.14,113.14,0,0,0,56.79,152.13Z"/><path class="cls-3" d="M29.15,129.78,48.68,112.2A88.14,88.14,0,0,1,37.91,97.38a87,87,0,0,1-11.15-53.5L.7,41.14A113.86,113.86,0,0,0,29.15,129.78Z"/></g></g></svg>