<!-- Generator: Adobe Illustrator 24.0.3, SVG Export Plug-In  -->
<svg version="1.1" xmlns="http://www.w3.org/2000/svg" xmlns:xlink="http://www.w3.org/1999/xlink" x="0px" y="0px"
	 width="1616.2px" height="2065.4px" viewBox="0 0 1616.2 2065.4" style="enable-background:new 0 0 1616.2 2065.4;"
	 xml:space="preserve">
<style type="text/css">
	.st0{fill:none;stroke:#FFFFFF;stroke-miterlimit:10;}
	.st1{fill:#FFFFFF;}
	.st2{clip-path:url(#SVGID_2_);fill:#101010;}
	.st3{opacity:0.3;fill:none;stroke:#FFFFFF;stroke-width:2;stroke-miterlimit:10;}
	.st4{fill:none;stroke:#FFFFFF;stroke-width:2;stroke-miterlimit:10;}
	.st5{opacity:0.3;}
	.st6{opacity:0.4;fill:none;stroke:#FFFFFF;stroke-width:2;stroke-miterlimit:10;}
	.st7{fill:#2B6AB0;}
	.st8{fill:#2D2E83;}
	.st9{fill:#36A9E1;}
	.st10{fill:#2B8AC9;}
	.st11{fill:#2E4B97;}
	.st12{fill:#E30613;stroke:#E30613;stroke-width:4;stroke-miterlimit:10;}
	.st13{fill:#95C11F;stroke:#95C11F;stroke-width:4;stroke-miterlimit:10;}
	.st14{fill:#008D36;stroke:#008D36;stroke-width:4;stroke-miterlimit:10;}
	.st15{clip-path:url(#SVGID_4_);fill:#101010;}
</style>
<defs>
</defs>
<rect x="698.4" width="566.9" height="850.4"/>
<rect x="0.5" width="566.9" height="850.4"/>
<circle class="st0" cx="189.6" cy="686.6" r="49.6"/>
<circle class="st0" cx="390.3" cy="607.8" r="49.6"/>
<circle class="st0" cx="489.8" cy="434.7" r="49.6"/>
<circle class="st0" cx="241.3" cy="505" r="49.6"/>
<circle class="st0" cx="96.8" cy="381.3" r="49.6"/>
<circle class="st0" cx="334" cy="285.1" r="49.6"/>
<circle class="st0" cx="169.6" cy="192.6" r="49.6"/>
<circle class="st0" cx="443.6" cy="130.6" r="49.6"/>
<path class="st1" d="M0,850.4c85.5-42.6,182-66.5,284-66.5c102,0,198.5,23.9,284,66.5"/>
<g>
	<defs>
		<rect id="SVGID_1_" x="698.4" y="51" width="566.9" height="799.4"/>
	</defs>
	<clipPath id="SVGID_2_">
		<use xlink:href="#SVGID_1_"  style="overflow:visible;"/>
	</clipPath>
	<ellipse class="st2" cx="981.9" cy="1424.1" rx="634.3" ry="641.3"/>
</g>
<circle class="st3" cx="844.1" cy="728.2" r="3.7"/>
<circle class="st4" cx="877.8" cy="669.2" r="2.9"/>
<circle class="st1" cx="881.2" cy="668.7" r="1.5"/>
<circle class="st3" cx="854" cy="681.4" r="5.1"/>
<circle class="st3" cx="863.3" cy="674.3" r="5.8"/>
<circle class="st3" cx="872.6" cy="670.4" r="2.2"/>
<circle class="st3" cx="875.5" cy="669.6" r="0.7"/>
<circle class="st3" cx="1043.9" cy="649.5" r="3.7"/>
<circle class="st1" cx="1077.6" cy="590.4" r="2.9"/>
<circle class="st4" cx="1080.9" cy="590" r="1.5"/>
<circle class="st3" cx="1042.1" cy="623.4" r="4.4"/>
<circle class="st3" cx="1053.7" cy="602.7" r="5.1"/>
<circle class="st3" cx="842.4" cy="702.2" r="4.4"/>
<circle class="st3" cx="1063" cy="595.6" r="5.8"/>
<circle class="st3" cx="1072.3" cy="591.6" r="2.2"/>
<circle class="st4" cx="1075.2" cy="590.9" r="0.7"/>
<g class="st5">
	<ellipse transform="matrix(0.5 -0.866 0.866 0.5 156.632 1229.1072)" class="st6" cx="1142.8" cy="478.9" rx="3.8" ry="3.6"/>
	<ellipse transform="matrix(0.5 -0.866 0.866 0.5 226.8522 1228.7786)" class="st6" cx="1177.6" cy="417.9" rx="3" ry="2.9"/>
	<ellipse transform="matrix(0.5 -0.866 0.866 0.5 228.9848 1231.4658)" class="st6" cx="1181" cy="417.4" rx="1.5" ry="1.4"/>
	<ellipse transform="matrix(0.5 -0.866 0.866 0.5 179.0329 1214.7544)" class="st6" cx="1141.5" cy="452.3" rx="4.5" ry="4.3"/>
	<ellipse transform="matrix(0.5 -0.866 0.866 0.5 203.5744 1214.4427)" class="st6" cx="1153.5" cy="430.9" rx="5.3" ry="5.1"/>
</g>
<ellipse transform="matrix(0.5 -0.866 0.866 0.5 214.6932 1218.8741)" class="st4" cx="1162.9" cy="423.5" rx="6" ry="5.8"/>
<ellipse transform="matrix(0.5 -0.866 0.866 0.5 223.0834 1224.9036)" class="st1" cx="1172.3" cy="419.3" rx="2.3" ry="2.2"/>
<ellipse transform="matrix(0.5 -0.866 0.866 0.5 225.2229 1226.986)" class="st4" cx="1175.2" cy="418.4" rx="0.8" ry="0.7"/>
<g>
	<path class="st7" d="M1173.1,510.2l2.8-10.9c-0.9-0.2-1.8-0.5-2.7-0.8l-3.6,10.7C1170.7,509.6,1171.9,510,1173.1,510.2z"/>
	<path class="st8" d="M1154.2,483.4l-9.6,5.8c3.9,6.5,9.1,11.7,15.1,15.5l5.9-9.7C1161,492.1,1157,488.2,1154.2,483.4z"/>
	<path class="st9" d="M1208.4,504.5c7.1-4.3,12.8-10.1,16.9-16.8l-9.4-5.4c-4.5,7.1-11.2,12.7-19.1,15.6l3.4,10.5
		C1203.1,507.4,1205.8,506.1,1208.4,504.5z"/>
	<path class="st10" d="M1200.3,508.4l-3.4-10.5c-3.8,1.4-7.9,2.3-12.2,2.3c-3.1,0.1-6-0.3-8.8-0.9l-2.8,10.9
		C1181.9,512.3,1191.3,511.8,1200.3,508.4z"/>
	<path class="st11" d="M1173.2,498.6c-2.7-0.9-5.2-2.1-7.6-3.5l-5.9,9.7c3.1,1.9,6.4,3.5,9.9,4.6L1173.2,498.6z"/>
</g>
<g>
	<path class="st7" d="M902.8,758l-3.8-10.3c-3.9,1.4-8.2,2.2-12.6,2.2c-4.4,0-8.7-0.8-12.6-2.2l-3.7,10.3
		C880.4,761.8,892,762,902.8,758z"/>
	<path class="st8" d="M855.6,732.9l-9.5,5.5c5.8,9.4,14.4,16.1,24,19.6l3.7-10.3C866.2,744.9,859.8,739.7,855.6,732.9z"/>
	<path class="st10" d="M910.2,754.6c7-4.1,12.6-9.7,16.6-16.1l-9.5-5.5c-4.3,6.8-10.7,12-18.3,14.8l3.8,10.3
		C905.3,757.1,907.8,756,910.2,754.6z"/>
</g>
<g>
	<path class="st11" d="M1079.7,681.6l1.5-10.9c-3.8-0.5-7.4-1.6-10.7-3.2l-4.7,9.9C1070.2,679.5,1074.9,680.9,1079.7,681.6z"/>
	<path class="st8" d="M1055.3,654l-9.5,5.5c5,8.1,12,14.1,20,17.9l4.7-9.9C1064.3,664.5,1059,659.8,1055.3,654z"/>
	<path class="st10" d="M1101.2,679.6l-3.4-10.4c-2.3,0.8-4.8,1.3-7.3,1.6l1.3,10.9C1094.9,681.3,1098.1,680.6,1101.2,679.6z"/>
	<path class="st9" d="M1110,675.7c7-4.1,12.6-9.7,16.6-16.1l-9.5-5.5c-4.5,7.1-11.3,12.5-19.4,15.2l3.4,10.4
		C1104.2,678.6,1107.1,677.3,1110,675.7z"/>
	<path class="st7" d="M1091.8,681.7l-1.3-10.9c-1.4,0.2-2.8,0.3-4.3,0.3c-1.7,0-3.4-0.1-5-0.3l-1.5,10.9
		C1083.7,682.1,1087.7,682.2,1091.8,681.7z"/>
</g>
<polygon class="st12" points="1206.9,409.6 1209.2,410.5 1186.9,462.1 "/>
<polygon class="st12" points="1211.9,427.8 1213.9,429.4 1186.9,462.1 "/>
<polygon class="st12" points="1216.4,438.7 1217.9,440.8 1186.9,462.1 "/>
<polygon class="st12" points="1231.8,444.1 1232.6,446.5 1186.9,462.1 "/>
<polygon class="st12" points="1223.6,458.3 1223.7,460.9 1186.9,462.1 "/>
<polygon class="st12" points="1225.1,469.5 1224.5,472 1186.9,462.1 "/>
<polygon class="st13" points="1206.4,421.7 1208.6,422.8 1186.9,462.1 "/>
<polygon class="st13" points="1222.6,422 1224.4,423.8 1186.9,462.1 "/>
<polygon class="st13" points="1218.3,441.6 1219.6,443.9 1186.9,462.1 "/>
<polygon class="st13" points="1224.6,450.7 1225.1,453.2 1186.9,462.1 "/>
<polygon class="st13" points="1232.5,462.1 1232.3,464.7 1186.9,462.1 "/>
<polygon class="st13" points="1224.2,473.2 1223.3,475.7 1186.9,462.1 "/>
<polygon class="st14" points="1227.9,466 1227.4,468.6 1186.9,462.1 "/>
<polygon class="st14" points="1228.9,479.5 1227.8,481.9 1186.9,462.1 "/>
<polygon class="st12" points="1110,574.7 1112.4,575.6 1087.7,633.8 "/>
<polygon class="st12" points="1110.8,602.4 1112.8,604 1087.7,633.8 "/>
<polygon class="st12" points="1129.3,602.6 1130.8,604.7 1087.7,633.8 "/>
<polygon class="st12" points="1126.6,630.7 1126.7,633.2 1087.7,633.8 "/>
<polygon class="st13" points="1107.5,592.7 1109.7,593.9 1087.7,633.8 "/>
<polygon class="st13" points="1124.2,593.7 1126.1,595.4 1087.7,633.8 "/>
<polygon class="st14" points="1124.4,637.8 1124.1,640.3 1087.7,633.8 "/>
<polygon class="st13" points="912.3,685.2 914.1,687 887.9,712.7 "/>
<polygon class="st13" points="924.7,712.3 924.7,714.8 887.9,712.7 "/>
<polygon class="st14" points="922.2,726.9 921.2,729.3 887.9,712.7 "/>
<circle cx="1086.2" cy="634.5" r="36.5"/>
<circle cx="886.5" cy="713.2" r="36.5"/>
<ellipse transform="matrix(0.5 -0.866 0.866 0.5 191.8748 1257.9977)" cx="1185.4" cy="462.8" rx="37.7" ry="36.1"/>
<g>
	<circle class="st1" cx="1086.2" cy="634.5" r="8.8"/>
</g>
<g>
	<path class="st1" d="M1086.2,599.1c19.6,0,35.4,15.9,35.4,35.4s-15.9,35.4-35.4,35.4c-19.6,0-35.4-15.9-35.4-35.4
		S1066.6,599.1,1086.2,599.1 M1086.2,598.1c-20.1,0-36.4,16.3-36.4,36.4c0,20.1,16.3,36.4,36.4,36.4c20.1,0,36.4-16.3,36.4-36.4
		C1122.7,614.4,1106.3,598.1,1086.2,598.1L1086.2,598.1z"/>
</g>
<g>
	<path class="st1" d="M1086.2,599.1c19.6,0,35.4,15.9,35.4,35.4s-15.9,35.4-35.4,35.4c-19.6,0-35.4-15.9-35.4-35.4
		S1066.6,599.1,1086.2,599.1 M1086.2,598.1c-20.1,0-36.4,16.3-36.4,36.4c0,20.1,16.3,36.4,36.4,36.4c20.1,0,36.4-16.3,36.4-36.4
		C1122.7,614.4,1106.3,598.1,1086.2,598.1L1086.2,598.1z"/>
</g>
<circle class="st1" cx="886.5" cy="713.3" r="25.6"/>
<circle class="st0" cx="886.5" cy="713.3" r="33.6"/>
<ellipse transform="matrix(0.5 -0.866 0.866 0.5 191.8748 1257.9977)" class="st1" cx="1185.4" cy="462.8" rx="20" ry="19.2"/>
<circle class="st3" cx="752" cy="425.3" r="3.7"/>
<circle class="st3" cx="785.7" cy="366.3" r="2.9"/>
<circle class="st3" cx="789.1" cy="365.8" r="1.5"/>
<circle class="st3" cx="750.3" cy="399.3" r="4.4"/>
<circle class="st4" cx="761.9" cy="378.5" r="5.1"/>
<circle class="st1" cx="771.2" cy="371.4" r="5.8"/>
<circle class="st4" cx="780.5" cy="367.5" r="2.2"/>
<circle class="st3" cx="783.4" cy="366.7" r="0.7"/>
<g>
	<path class="st10" d="M818.1,451.5c0.8-0.5,1.7-1,2.5-1.5l-6-9.2c-4.7,3.1-10.1,5.2-16,5.9l1.2,10.9
		C806.1,456.9,812.3,454.9,818.1,451.5z"/>
	<path class="st8" d="M763.5,429.9l-9.5,5.5c3.7,6,8.5,10.8,14,14.5l6-9.2C769.8,437.9,766.2,434.2,763.5,429.9z"/>
	<path class="st9" d="M834.8,435.4l-9.5-5.5c-2.7,4.3-6.4,8.1-10.7,10.9l6,9.2C826.5,446.1,831.2,441.1,834.8,435.4z"/>
	<path class="st11" d="M799.8,457.6l-1.2-10.9c-1.4,0.2-2.8,0.2-4.2,0.2c-7.5,0-14.6-2.3-20.4-6.2l-6,9.2
		C777.3,456.1,788.6,458.9,799.8,457.6z"/>
</g>
<polygon class="st13" points="824.7,377.5 826.6,379.2 795.8,409.7 "/>
<polygon class="st13" points="833.3,399.2 833.9,401.7 795.8,409.7 "/>
<polygon class="st13" points="834.9,410.2 834.8,412.8 795.8,409.7 "/>
<polygon class="st14" points="830.2,423.9 829.1,426.2 795.8,409.7 "/>
<circle cx="794.4" cy="410.4" r="36.5"/>
<circle class="st1" cx="794.3" cy="410.2" r="9.1"/>
<circle class="st3" cx="987.5" cy="329.8" r="3.7"/>
<circle class="st3" cx="1021.2" cy="270.8" r="2.9"/>
<circle class="st3" cx="1024.8" cy="270.6" r="1.5"/>
<circle class="st4" cx="985.7" cy="303.8" r="4.4"/>
<circle class="st1" cx="997.3" cy="283" r="5.1"/>
<circle class="st4" cx="1006.6" cy="276" r="5.8"/>
<circle class="st3" cx="1015.9" cy="272" r="2.2"/>
<circle class="st3" cx="1018.8" cy="271.2" r="0.7"/>
<g>
	<path class="st8" d="M998.9,334.5l-9.5,5.5c3.3,5.3,7.5,9.8,12.2,13.3l6.4-8.9C1004.4,341.7,1001.3,338.3,998.9,334.5z"/>
	<path class="st10" d="M1053.6,356.1c7-4.1,12.6-9.7,16.6-16.1l-9.5-5.5c-5.2,8.2-13.5,14.1-23.3,16.2l2.3,10.7
		C1044.4,360.5,1049.1,358.7,1053.6,356.1z"/>
	<path class="st11" d="M1039.7,361.5l-2.3-10.7c-2.5,0.5-5,0.8-7.6,0.8c-8.1,0-15.6-2.7-21.7-7.1l-6.4,8.9
		C1012.5,361.2,1026.4,364.3,1039.7,361.5z"/>
</g>
<polygon class="st13" points="1055.7,286.7 1057.5,288.5 1031.3,314.2 "/>
<polygon class="st13" points="1064.3,293.6 1065.6,295.8 1031.3,314.2 "/>
<polygon class="st13" points="1068.1,314.6 1068,317.2 1031.3,314.2 "/>
<circle cx="1029.8" cy="314.9" r="36.5"/>
<circle class="st1" cx="1029.8" cy="314.9" r="7.3"/>
<circle class="st1" cx="1096.3" cy="176.4" r="3.7"/>
<circle class="st3" cx="1130" cy="117.4" r="2.9"/>
<circle class="st4" cx="1094.6" cy="150.4" r="4.4"/>
<circle class="st3" cx="1106.2" cy="129.6" r="5.1"/>
<circle class="st3" cx="1115.4" cy="122.6" r="5.8"/>
<circle class="st3" cx="1124.8" cy="118.6" r="2.2"/>
<circle class="st3" cx="1127.6" cy="117.8" r="0.7"/>
<path class="st10" d="M1162.4,202.7c7-4.1,12.6-9.7,16.6-16.1l-9.5-5.5c-6.5,10.2-17.9,17-30.9,17c-13,0-24.4-6.8-30.9-17l-9.5,5.5
	C1111.7,208.3,1140.1,215.5,1162.4,202.7z"/>
<polygon class="st13" points="1171.2,141.3 1172.5,143.5 1140.2,160.8 "/>
<circle cx="1138.6" cy="161.5" r="36.5"/>
<circle class="st1" cx="1138.7" cy="161.5" r="9.1"/>
<circle class="st4" cx="824.3" cy="237.9" r="3.7"/>
<circle class="st3" cx="858" cy="178.9" r="2.9"/>
<circle class="st3" cx="861.4" cy="178.5" r="1.5"/>
<circle class="st4" cx="834.2" cy="191.2" r="5.1"/>
<circle class="st3" cx="843.4" cy="184.1" r="5.8"/>
<circle class="st3" cx="852.8" cy="180.1" r="2.2"/>
<circle class="st3" cx="855.6" cy="179.4" r="0.7"/>
<path class="st10" d="M890.4,264.2c7-4.1,12.6-9.7,16.6-16.1l-9.5-5.5c-6.5,10.2-17.9,17-30.9,17c-13,0-24.4-6.8-30.9-17l-9.5,5.5
	C839.7,269.8,868.1,277.1,890.4,264.2z"/>
<polygon class="st13" points="894.5,202.9 895.7,205.1 863.4,222.3 "/>
<circle class="st1" cx="822.6" cy="211.9" r="4.4"/>
<circle cx="866.6" cy="223" r="36.5"/>
<circle class="st1" cx="866.6" cy="223" r="9.1"/>
<polygon class="st12" points="943.4,475.7 945.9,475.9 939.3,532.4 "/>
<polygon class="st13" points="946.3,489.3 948.8,489.8 939.3,532.4 "/>
<polygon class="st12" points="977.9,432.5 980.2,433.5 939.3,532.4 "/>
<polygon class="st13" points="983.1,444.5 985.4,445.7 939.3,532.4 "/>
<polygon class="st12" points="967.7,494.1 969.7,495.7 939.3,532.4 "/>
<polygon class="st12" points="975.5,539.8 974.9,542.3 939.3,532.4 "/>
<polygon class="st13" points="983.3,484.3 985.2,486.1 939.3,532.4 "/>
<polygon class="st13" points="991.7,518.3 992.3,520.8 939.3,532.4 "/>
<polygon class="st13" points="987.2,547.6 986.3,550 939.3,532.4 "/>
<polygon class="st14" points="975.5,525.9 975.8,528.4 939.3,532.4 "/>
<polygon class="st14" points="975.6,547.5 974.6,549.9 939.3,532.4 "/>
<circle class="st3" cx="895.4" cy="548" r="3.7"/>
<circle class="st4" cx="929.1" cy="489" r="2.9"/>
<circle class="st3" cx="932.5" cy="488.6" r="1.5"/>
<circle class="st3" cx="895.6" cy="523.9" r="4.4"/>
<circle class="st3" cx="905.3" cy="501.3" r="5.1"/>
<circle class="st3" cx="914.5" cy="494.2" r="5.8"/>
<circle class="st4" cx="923.9" cy="490.2" r="2.2"/>
<circle class="st1" cx="926.7" cy="489.5" r="0.7"/>
<g>
	<path class="st11" d="M927.1,568.1c-5.5-1.7-10.4-4.6-14.5-8.4l-7.5,8c5.4,5.1,11.9,8.8,18.8,10.9L927.1,568.1z"/>
	<path class="st10" d="M961.5,574.3c0.3-0.2,0.6-0.4,0.9-0.6c-1.5-2.5-3.2-5.3-5.7-9.4c-5.5,3.4-12.1,5.4-19,5.4
		c-1.2,0-2.4-0.1-3.5-0.2l-1.1,10.9C942.7,581.3,952.6,579.4,961.5,574.3z"/>
	<path class="st8" d="M906.8,552.6l-9.5,5.5c2.2,3.6,4.8,6.8,7.8,9.5l7.5-8C910.4,557.6,908.5,555.2,906.8,552.6z"/>
	<path class="st7" d="M933.1,580.4l1.1-10.9c-2.5-0.2-4.8-0.7-7.1-1.4l-3.2,10.5C926.9,579.5,930,580.1,933.1,580.4z"/>
	<path class="st9" d="M978.1,558.1l-9.5-5.5c-3,4.7-7.1,8.7-11.8,11.7c2.5,4.1,4.2,6.9,5.7,9.4C969,569.7,974.3,564.3,978.1,558.1z"
		/>
</g>
<circle cx="937.8" cy="533.1" r="36.5"/>
<g>
	<path class="st1" d="M937.8,511.2c12.1,0,21.9,9.8,21.9,21.9s-9.8,21.9-21.9,21.9s-21.9-9.8-21.9-21.9S925.7,511.2,937.8,511.2
		 M937.8,510.2c-12.6,0-22.9,10.3-22.9,22.9s10.3,22.9,22.9,22.9s22.9-10.3,22.9-22.9S950.4,510.2,937.8,510.2L937.8,510.2z"/>
</g>
<g>
	<circle class="st1" cx="937.8" cy="533.1" r="4.7"/>
</g>
<circle class="st3" cx="1133.6" cy="117.2" r="1.5"/>
</svg>
