<!-- Generator: Adobe Illustrator 24.0.3, SVG Export Plug-In  -->
<svg version="1.1" xmlns="http://www.w3.org/2000/svg" xmlns:xlink="http://www.w3.org/1999/xlink" x="0px" y="0px"
	 width="1256.2px" height="850.39px" viewBox="0 0 1256.2 850.39" style="enable-background:new 0 0 1256.2 850.39;"
	 xml:space="preserve">
<style type="text/css">
	.st0{fill:none;stroke:#EB8535;stroke-width:2;stroke-miterlimit:10;}
	.st1{fill:none;stroke:#FFFFFF;stroke-width:2;stroke-miterlimit:10;}
</style>
<defs>
</defs>
<rect width="566.93" height="850.39"/>
<rect x="689.27" width="566.93" height="850.39"/>
<circle class="st0" cx="851.57" cy="434.39" r="69.48"/>
<polyline class="st1" points="851.57,434.39 1021.65,434.39 1021.65,321 "/>
<polyline class="st1" points="851.57,434.39 1049.99,434.39 1049.99,207.62 "/>
<polyline class="st1" points="851.57,434.39 1078.34,434.39 1078.34,349.35 "/>
<polyline class="st1" points="851.57,434.39 1135.03,434.39 1135.03,207.62 "/>
<polyline class="st1" points="851.57,434.39 1163.38,434.39 1163.38,235.96 "/>
<circle class="st0" cx="259.27" cy="455.65" r="69.48"/>
<path class="st1" d="M259.27,370.61c20.81,0,39.88,7.48,54.66,19.89"/>
<path class="st1" d="M259.27,356.43c48.92,0,89.56,35.4,97.72,81.98"/>
<path class="st1" d="M259.27,342.26c19.57,0,37.98,4.96,54.05,13.69c0.89,0.48,1.78,0.98,2.66,1.49"/>
<path class="st1" d="M259.27,313.91c69.88,0,127.95,50.57,139.6,117.12"/>
<path class="st1" d="M259.27,299.74c67.27,0,124.59,42.6,146.45,102.3"/>
</svg>
