<!-- Generator: Adobe Illustrator 24.0.3, SVG Export Plug-In  -->
<svg version="1.1" xmlns="http://www.w3.org/2000/svg" xmlns:xlink="http://www.w3.org/1999/xlink" x="0px" y="0px" width="57.4px"
	 height="122.7px" viewBox="0 0 57.4 122.7" style="enable-background:new 0 0 57.4 122.7;" xml:space="preserve">
<style type="text/css">
	.st0{fill:#E30613;stroke:#E30613;stroke-width:4;stroke-miterlimit:10;}
	.st1{fill:#95C11F;stroke:#95C11F;stroke-width:4;stroke-miterlimit:10;}
	.st2{fill:#008D36;stroke:#008D36;stroke-width:4;stroke-miterlimit:10;}
</style>
<defs>
</defs>
<polygon class="st0" points="6.1,45.8 8.7,46 2,102.5 "/>
<polygon class="st1" points="9,59.4 11.5,59.9 2,102.5 "/>
<polygon class="st0" points="40.6,2.6 42.9,3.6 2,102.5 "/>
<polygon class="st1" points="45.8,14.6 48.1,15.8 2,102.5 "/>
<polygon class="st0" points="30.5,64.2 32.5,65.8 2,102.5 "/>
<polygon class="st0" points="38.2,109.9 37.6,112.4 2,102.5 "/>
<polygon class="st1" points="46,54.4 47.9,56.2 2,102.5 "/>
<polygon class="st1" points="54.4,88.4 55,90.9 2,102.5 "/>
<polygon class="st1" points="49.9,117.6 49.1,120.1 2,102.5 "/>
<polygon class="st2" points="38.2,96 38.5,98.5 2,102.5 "/>
<polygon class="st2" points="38.3,117.6 37.3,120 2,102.5 "/>
</svg>
