<!-- Generator: Adobe Illustrator 24.0.3, SVG Export Plug-In  -->
<svg version="1.1" xmlns="http://www.w3.org/2000/svg" xmlns:xlink="http://www.w3.org/1999/xlink" x="0px" y="0px"
	 width="1259.57px" height="850.39px" viewBox="0 0 1259.57 850.39" style="enable-background:new 0 0 1259.57 850.39;"
	 xml:space="preserve">
<style type="text/css">
	.st0{clip-path:url(#SVGID_3_);fill:#36A9E1;}
	.st1{clip-path:url(#SVGID_3_);fill:#E94E1B;}
	.st2{clip-path:url(#SVGID_3_);fill:#D60B52;}
	.st3{clip-path:url(#SVGID_3_);fill:#951B81;}
	.st4{clip-path:url(#SVGID_3_);fill:#00A19A;}
	.st5{fill:#E30613;}
	.st6{fill:#95C11F;}
	.st7{fill:#008D36;}
	.st8{fill:none;stroke:#36A9E1;stroke-width:4.252;stroke-miterlimit:10;}
	.st9{fill:none;stroke:#E30613;stroke-width:4.252;stroke-miterlimit:10;}
	.st10{fill:#FFFFFF;}
	.st11{fill:#EB8535;}
	.st12{fill:none;stroke:#FFFFFF;stroke-width:0.75;stroke-miterlimit:10;}
	.st13{fill:none;stroke:#FFFFFF;stroke-miterlimit:10;}
	.st14{fill:#E30613;stroke:#E30613;stroke-width:3;stroke-miterlimit:10;}
	.st15{fill:#95C11F;stroke:#95C11F;stroke-width:3;stroke-miterlimit:10;}
	.st16{fill:#008D36;stroke:#008D36;stroke-width:3;stroke-miterlimit:10;}
	.st17{clip-path:url(#SVGID_4_);}
	.st18{fill:#36A9E1;}
	.st19{fill:#E94E1B;}
	.st20{fill:#D60B52;}
	.st21{fill:#662483;}
	.st22{fill:#00A19A;}
	.st23{fill:none;stroke:#FFFFFF;stroke-width:2;stroke-miterlimit:10;}
	.st24{clip-path:url(#SVGID_6_);fill:#36A9E1;}
	.st25{clip-path:url(#SVGID_6_);fill:#E94E1B;}
	.st26{clip-path:url(#SVGID_6_);fill:#D60B52;}
	.st27{clip-path:url(#SVGID_6_);fill:#951B81;}
	.st28{clip-path:url(#SVGID_6_);fill:#00A19A;}
	.st29{clip-path:url(#SVGID_8_);}
</style>
<defs>
</defs>
<rect x="692.64" width="566.93" height="850.39"/>
<rect width="566.93" height="850.39"/>
<g>
	<defs>
		<path id="SVGID_2_" d="M293.59,532.72v69.44c98.52-2.42,177.95-81.84,180.36-180.36h-69.44
			C402.15,481.99,353.78,530.35,293.59,532.72z"/>
	</defs>
	<clipPath id="SVGID_3_">
		<use xlink:href="#SVGID_2_"  style="overflow:visible;"/>
	</clipPath>
	<path class="st0" d="M285.6,578.49c0-22.74,18.43-41.17,41.17-41.17c22.73,0,41.16,18.43,41.16,41.17
		c0,22.74-18.43,41.17-41.16,41.17C304.03,619.66,285.6,601.23,285.6,578.49"/>
	<path class="st1" d="M325.39,485.8c0-25.31,20.52-45.84,45.84-45.84c25.31,0,45.84,20.52,45.84,45.84
		c0,25.31-20.52,45.84-45.84,45.84C345.91,531.63,325.39,511.11,325.39,485.8"/>
	<path class="st2" d="M414.82,504.92c0-23.98,19.44-43.42,43.42-43.42c23.98,0,43.43,19.44,43.43,43.42
		c0,23.98-19.44,43.42-43.43,43.42C434.26,548.34,414.82,528.9,414.82,504.92"/>
	<path class="st3" d="M365.23,558.9c0-17.32,14.04-31.36,31.36-31.36c17.32,0,31.36,14.04,31.36,31.36
		c0,17.32-14.04,31.36-31.36,31.36C379.27,590.27,365.23,576.23,365.23,558.9"/>
	<path class="st4" d="M402.7,442.6c0-14.23,11.53-25.76,25.76-25.76c14.23,0,25.76,11.54,25.76,25.76
		c0,14.23-11.53,25.76-25.76,25.76C414.23,468.36,402.7,456.83,402.7,442.6"/>
</g>
<polygon class="st5" points="337.28,249.2 345.05,251.49 293.59,412.42 "/>
<polygon class="st5" points="357.41,287.06 364.52,290.94 293.59,412.42 "/>
<polygon class="st5" points="368.79,319.42 374.91,324.72 293.59,412.42 "/>
<polygon class="st5" points="428.54,306.29 433.4,312.77 293.59,412.42 "/>
<polygon class="st5" points="400.99,358.89 404.36,366.25 293.59,412.42 "/>
<polygon class="st5" points="420.68,380.59 422.4,388.5 293.59,412.42 "/>
<polygon class="st6" points="342.68,269.19 350.26,272.02 293.59,412.42 "/>
<polygon class="st6" points="394.26,248.24 401.07,252.61 293.59,412.42 "/>
<polygon class="st6" points="375.22,325.03 380.95,330.75 293.59,412.42 "/>
<polygon class="st6" points="400.82,338.66 405.19,345.47 293.59,412.42 "/>
<polygon class="st6" points="443.73,352.06 446.56,359.64 293.59,412.42 "/>
<polygon class="st6" points="422.87,389.7 424.02,397.72 293.59,412.42 "/>
<polygon class="st7" points="427.76,368.76 430.05,376.53 293.59,412.42 "/>
<polygon class="st7" points="455.55,396.73 456.13,404.8 293.59,412.42 "/>
<path class="st8" d="M171.66,412.42c1.18-30.58,14.06-58.15,34.29-78.38"/>
<path class="st8" d="M168.28,345.01c5.97-9.98,13.14-19.16,21.31-27.33"/>
<path class="st9" d="M205.95,334.04c5.54-5.54,11.62-10.52,18.17-14.87"/>
<circle cx="288.96" cy="417.05" r="115.66"/>
<circle class="st10" cx="288.96" cy="417.05" r="61.3"/>
<circle class="st11" cx="263.37" cy="558.58" r="6.94"/>
<circle class="st12" cx="269.13" cy="559.33" r="9.25"/>
<circle class="st12" cx="274.34" cy="559.79" r="4.63"/>
<circle class="st12" cx="161.85" cy="487.18" r="13.88"/>
<circle class="st12" cx="209.37" cy="538.34" r="16.19"/>
<circle class="st12" cx="237.56" cy="552.12" r="18.5"/>
<circle class="st13" cx="267.11" cy="559.09" r="2.31"/>
<polygon class="st14" points="1053.69,255.47 1061.31,258.52 993.86,416.1 "/>
<polygon class="st14" points="1078.75,301.38 1085.21,306.46 993.86,416.1 "/>
<polygon class="st14" points="1090.2,342.34 1094.97,349.02 993.86,416.1 "/>
<polygon class="st14" points="1157,355.1 1159.69,362.86 993.86,416.1 "/>
<polygon class="st14" points="1115.19,406.05 1115.59,414.26 993.86,416.1 "/>
<polygon class="st14" points="1123.97,443.23 1122.05,451.22 993.86,416.1 "/>
<polygon class="st15" points="1060.52,277.72 1067.82,281.48 993.86,416.1 "/>
<polygon class="st15" points="1125.6,271.81 1131.54,277.48 993.86,416.1 "/>
<polygon class="st15" points="1096.76,351.83 1100.87,358.94 993.86,416.1 "/>
<polygon class="st15" points="1121.1,380.86 1123.05,388.84 993.86,416.1 "/>
<polygon class="st15" points="1157.99,419.58 1157.61,427.79 993.86,416.1 "/>
<polygon class="st15" points="1121.04,455.55 1118.37,463.31 993.86,416.1 "/>
<polygon class="st16" points="1136.09,432.19 1134.94,440.32 993.86,416.1 "/>
<polygon class="st16" points="1145.78,480.66 1142.38,488.14 993.86,416.1 "/>
<g>
	<defs>
		<path id="SVGID_1_" d="M989.33,536.26c-41.74,0-78.39-21.8-99.19-54.64l-50.84,29.35c30.96,50.36,86.57,83.95,150.02,83.95
			s119.06-33.59,150.02-83.95l-50.84-29.35C1067.72,514.45,1031.08,536.26,989.33,536.26z"/>
	</defs>
	<clipPath id="SVGID_4_">
		<use xlink:href="#SVGID_1_"  style="overflow:visible;"/>
	</clipPath>
	<g class="st17">
		<g>
			<path class="st18" d="M871.2,524.03c16.31-16.31,42.75-16.31,59.06,0c16.31,16.31,16.31,42.75,0,59.06
				c-16.31,16.31-42.75,16.31-59.06,0C854.89,566.78,854.89,540.33,871.2,524.03"/>
			<path class="st19" d="M966.23,486.07c18.16-18.16,47.6-18.16,65.76,0c18.16,18.16,18.16,47.6,0,65.76
				c-18.16,18.16-47.6,18.16-65.76,0C948.07,533.67,948.07,504.23,966.23,486.07"/>
			<path class="st20" d="M1016.67,563.94c17.2-17.2,45.09-17.2,62.3,0c17.2,17.2,17.2,45.1,0,62.3c-17.2,17.2-45.09,17.2-62.3,0
				C999.46,609.03,999.46,581.14,1016.67,563.94"/>
			<path class="st21" d="M942.37,567.09c12.43-12.43,32.57-12.43,45,0c12.42,12.42,12.43,32.57,0,45c-12.43,12.43-32.57,12.42-45,0
				C929.94,599.66,929.94,579.52,942.37,567.09"/>
			<path class="st22" d="M1052.67,510.54c10.21-10.21,26.76-10.21,36.96,0c10.21,10.21,10.21,26.76,0,36.96
				c-10.21,10.21-26.75,10.21-36.96,0C1042.47,537.29,1042.47,520.75,1052.67,510.54"/>
		</g>
	</g>
</g>
<circle cx="989.33" cy="418.81" r="117.33"/>
<circle class="st10" cx="989.33" cy="418.81" r="62.18"/>
<circle class="st23" cx="853.33" cy="466.78" r="11.73"/>
<circle class="st23" cx="961.54" cy="277.22" r="9.39"/>
<circle class="st23" cx="972.41" cy="275.84" r="4.69"/>
<circle class="st23" cx="847.79" cy="383.18" r="14.08"/>
<circle class="st23" cx="885.06" cy="316.61" r="16.43"/>
<circle class="st23" cx="914.8" cy="293.88" r="18.77"/>
<circle class="st10" cx="944.79" cy="281.08" r="7.04"/>
<circle class="st23" cx="953.97" cy="278.7" r="2.35"/>
</svg>
