<!-- Generator: Adobe Illustrator 24.0.3, SVG Export Plug-In  -->
<svg version="1.1" xmlns="http://www.w3.org/2000/svg" xmlns:xlink="http://www.w3.org/1999/xlink" x="0px" y="0px"
	 width="2620.7px" height="850.4px" viewBox="0 0 2620.7 850.4" style="enable-background:new 0 0 2620.7 850.4;"
	 xml:space="preserve">
<style type="text/css">
	.st0{fill:none;stroke:#FFFFFF;stroke-miterlimit:10;}
	.st1{fill:#FFFFFF;}
</style>
<defs>
</defs>
<rect x="2053.7" width="566.9" height="850.4"/>
<rect x="1388.6" width="566.9" height="850.4"/>
<rect x="696" width="566.9" height="850.4"/>
<rect width="566.9" height="850.4"/>
<circle class="st0" cx="894.4" cy="695.6" r="49.6"/>
<circle class="st0" cx="894.4" cy="515.3" r="49.6"/>
<circle class="st0" cx="894.4" cy="335.1" r="49.6"/>
<circle class="st0" cx="894.4" cy="154.8" r="49.6"/>
<circle class="st0" cx="1064.5" cy="695.6" r="49.6"/>
<circle class="st0" cx="1064.5" cy="515.3" r="49.6"/>
<circle class="st0" cx="1064.5" cy="335.1" r="49.6"/>
<circle class="st0" cx="1064.5" cy="154.8" r="49.6"/>
<circle class="st0" cx="198.4" cy="708.7" r="49.6"/>
<circle class="st0" cx="198.4" cy="528.4" r="49.6"/>
<circle class="st0" cx="198.4" cy="348.1" r="49.6"/>
<circle class="st0" cx="198.4" cy="167.8" r="49.6"/>
<circle class="st0" cx="368.5" cy="637.8" r="49.6"/>
<circle class="st0" cx="368.5" cy="457.5" r="49.6"/>
<circle class="st0" cx="368.5" cy="277.3" r="49.6"/>
<circle class="st0" cx="368.5" cy="97" r="49.6"/>
<circle class="st0" cx="1855.2" cy="401.8" r="49.6"/>
<circle class="st1" cx="1698" cy="400.4" r="49.6"/>
<circle class="st0" cx="1822.2" cy="278.8" r="49.6"/>
<circle class="st0" cx="1700" cy="210.9" r="49.6"/>
<circle class="st0" cx="1551.8" cy="255" r="49.6"/>
<circle class="st0" cx="1477.7" cy="401.3" r="49.6"/>
<circle class="st0" cx="1531.9" cy="566.8" r="49.6"/>
<circle class="st0" cx="1699.3" cy="652.6" r="49.6"/>
<circle class="st0" cx="1887.6" cy="589.8" r="49.6"/>
<circle class="st0" cx="2511.4" cy="259.9" r="49.6"/>
<circle class="st0" cx="2383.8" cy="110.8" r="49.6"/>
<circle class="st0" cx="2209.6" cy="271.1" r="49.6"/>
<circle class="st0" cx="2160.6" cy="481" r="49.6"/>
<circle class="st0" cx="2411.5" cy="434.2" r="49.6"/>
<circle class="st0" cx="2159.7" cy="694.6" r="49.6"/>
<circle class="st0" cx="2358.8" cy="665.5" r="49.6"/>
<circle class="st0" cx="2542.1" cy="728.6" r="49.6"/>
<circle class="st1" cx="2315.6" cy="437.8" r="49.6"/>
</svg>
