<!-- Generator: Adobe Illustrator 24.0.3, SVG Export Plug-In  -->
<svg version="1.1" xmlns="http://www.w3.org/2000/svg" xmlns:xlink="http://www.w3.org/1999/xlink" x="0px" y="0px"
	 width="1277.7px" height="850.4px" viewBox="0 0 1277.7 850.4" style="enable-background:new 0 0 1277.7 850.4;"
	 xml:space="preserve">
<style type="text/css">
	.st0{fill:none;stroke:#FFFFFF;stroke-miterlimit:10;}
</style>
<defs>
</defs>
<rect x="710.7" width="566.9" height="850.4"/>
<rect width="566.9" height="850.4"/>
<circle class="st0" cx="127.6" cy="650.4" r="49.6"/>
<circle class="st0" cx="283.5" cy="650.4" r="49.6"/>
<circle class="st0" cx="439.4" cy="650.4" r="49.6"/>
<circle class="st0" cx="127.6" cy="425.2" r="49.6"/>
<circle class="st0" cx="283.5" cy="425.2" r="49.6"/>
<circle class="st0" cx="439.4" cy="425.2" r="49.6"/>
<circle class="st0" cx="283.5" cy="200" r="49.6"/>
<circle class="st0" cx="439.4" cy="200" r="49.6"/>
<circle class="st0" cx="772.3" cy="774" r="49.6"/>
<circle class="st0" cx="887.7" cy="731.9" r="49.6"/>
<circle class="st0" cx="981.8" cy="652.7" r="49.6"/>
<circle class="st0" cx="1043.2" cy="546.1" r="49.6"/>
<circle class="st0" cx="1064.6" cy="425.2" r="49.6"/>
<circle class="st0" cx="1043.5" cy="304.3" r="49.6"/>
<circle class="st0" cx="981.9" cy="197.7" r="49.6"/>
<circle class="st0" cx="887.7" cy="118.7" r="49.6"/>
<circle class="st0" cx="772.1" cy="76.8" r="49.6"/>
</svg>
