<!-- Generator: Adobe Illustrator 24.0.3, SVG Export Plug-In  -->
<svg version="1.1" xmlns="http://www.w3.org/2000/svg" xmlns:xlink="http://www.w3.org/1999/xlink" x="0px" y="0px"
	 width="1268.7px" height="2065.4px" viewBox="0 0 1268.7 2065.4" style="enable-background:new 0 0 1268.7 2065.4;"
	 xml:space="preserve">
<style type="text/css">
	.st0{clip-path:url(#SVGID_2_);fill:#101010;}
	.st1{opacity:0.3;fill:none;stroke:#FFFFFF;stroke-width:2;stroke-miterlimit:10;}
	.st2{fill:none;stroke:#FFFFFF;stroke-width:2;stroke-miterlimit:10;}
	.st3{fill:#FFFFFF;}
	.st4{opacity:0.3;}
	.st5{opacity:0.4;fill:none;stroke:#FFFFFF;stroke-width:2;stroke-miterlimit:10;}
	.st6{fill:#2B6AB0;}
	.st7{fill:#2D2E83;}
	.st8{fill:#36A9E1;}
	.st9{fill:#2B8AC9;}
	.st10{fill:#2E4B97;}
	.st11{fill:#E30613;stroke:#E30613;stroke-width:4;stroke-miterlimit:10;}
	.st12{fill:#95C11F;stroke:#95C11F;stroke-width:4;stroke-miterlimit:10;}
	.st13{fill:#008D36;stroke:#008D36;stroke-width:4;stroke-miterlimit:10;}
	.st14{fill:none;stroke:#FFFFFF;stroke-miterlimit:10;}
	.st15{clip-path:url(#SVGID_4_);fill:#101010;}
</style>
<defs>
</defs>
<rect x="350.8" width="566.9" height="850.4"/>
<g>
	<defs>
		<rect id="SVGID_1_" x="350.8" y="51" width="566.9" height="799.4"/>
	</defs>
	<clipPath id="SVGID_2_">
		<use xlink:href="#SVGID_1_"  style="overflow:visible;"/>
	</clipPath>
	<ellipse class="st0" cx="634.3" cy="1424.1" rx="634.3" ry="641.3"/>
</g>
<circle class="st1" cx="496.5" cy="728.2" r="3.7"/>
<circle class="st2" cx="530.2" cy="669.2" r="2.9"/>
<circle class="st3" cx="533.6" cy="668.7" r="1.5"/>
<circle class="st1" cx="506.4" cy="681.4" r="5.1"/>
<circle class="st1" cx="515.7" cy="674.3" r="5.8"/>
<circle class="st1" cx="525" cy="670.4" r="2.2"/>
<circle class="st1" cx="527.9" cy="669.6" r="0.7"/>
<circle class="st1" cx="696.3" cy="649.5" r="3.7"/>
<circle class="st3" cx="730" cy="590.4" r="2.9"/>
<circle class="st2" cx="733.4" cy="590" r="1.5"/>
<circle class="st1" cx="694.6" cy="623.4" r="4.4"/>
<circle class="st1" cx="706.2" cy="602.7" r="5.1"/>
<circle class="st1" cx="494.8" cy="702.2" r="4.4"/>
<circle class="st1" cx="715.4" cy="595.6" r="5.8"/>
<circle class="st1" cx="724.8" cy="591.6" r="2.2"/>
<circle class="st2" cx="727.6" cy="590.9" r="0.7"/>
<g class="st4">
	<ellipse transform="matrix(0.5 -0.866 0.866 0.5 -17.1585 928.0931)" class="st5" cx="795.2" cy="478.9" rx="3.8" ry="3.6"/>
	<ellipse transform="matrix(0.5 -0.866 0.866 0.5 53.0616 927.7645)" class="st5" cx="830" cy="417.9" rx="3" ry="2.9"/>
	<ellipse transform="matrix(0.5 -0.866 0.866 0.5 55.1942 930.4517)" class="st5" cx="833.4" cy="417.4" rx="1.5" ry="1.4"/>
	<ellipse transform="matrix(0.5 -0.866 0.866 0.5 5.2423 913.7403)" class="st5" cx="793.9" cy="452.3" rx="4.5" ry="4.3"/>
	<ellipse transform="matrix(0.5 -0.866 0.866 0.5 29.7838 913.4286)" class="st5" cx="805.9" cy="430.9" rx="5.3" ry="5.1"/>
</g>
<ellipse transform="matrix(0.5 -0.866 0.866 0.5 40.9026 917.86)" class="st2" cx="815.3" cy="423.5" rx="6" ry="5.8"/>
<ellipse transform="matrix(0.5 -0.866 0.866 0.5 49.2928 923.8894)" class="st3" cx="824.8" cy="419.3" rx="2.3" ry="2.2"/>
<ellipse transform="matrix(0.5 -0.866 0.866 0.5 51.4323 925.9718)" class="st2" cx="827.6" cy="418.4" rx="0.8" ry="0.7"/>
<g>
	<path class="st6" d="M825.5,510.2l2.8-10.9c-0.9-0.2-1.8-0.5-2.7-0.8l-3.6,10.7C823.2,509.6,824.3,510,825.5,510.2z"/>
	<path class="st7" d="M806.6,483.4l-9.6,5.8c3.9,6.5,9.1,11.7,15.1,15.5l5.9-9.7C813.4,492.1,809.5,488.2,806.6,483.4z"/>
	<path class="st8" d="M860.9,504.5c7.1-4.3,12.8-10.1,16.9-16.8l-9.4-5.4c-4.5,7.1-11.2,12.7-19.1,15.6l3.4,10.5
		C855.5,507.4,858.2,506.1,860.9,504.5z"/>
	<path class="st9" d="M852.7,508.4l-3.4-10.5c-3.8,1.4-7.9,2.3-12.2,2.3c-3.1,0.1-6-0.3-8.8-0.9l-2.8,10.9
		C834.3,512.3,843.8,511.8,852.7,508.4z"/>
	<path class="st10" d="M825.6,498.6c-2.7-0.9-5.2-2.1-7.6-3.5l-5.9,9.7c3.1,1.9,6.4,3.5,9.9,4.6L825.6,498.6z"/>
</g>
<g>
	<path class="st6" d="M555.2,758l-3.8-10.3c-3.9,1.4-8.2,2.2-12.6,2.2c-4.4,0-8.7-0.8-12.6-2.2l-3.7,10.3
		C532.8,761.8,544.4,762,555.2,758z"/>
	<path class="st7" d="M508,732.9l-9.5,5.5c5.8,9.4,14.4,16.1,24,19.6l3.7-10.3C518.7,744.9,512.2,739.7,508,732.9z"/>
	<path class="st9" d="M562.6,754.6c7-4.1,12.6-9.7,16.6-16.1l-9.5-5.5c-4.3,6.8-10.7,12-18.3,14.8l3.8,10.3
		C557.7,757.1,560.2,756,562.6,754.6z"/>
</g>
<g>
	<path class="st10" d="M732.1,681.6l1.5-10.9c-3.8-0.5-7.4-1.6-10.7-3.2l-4.7,9.9C722.6,679.5,727.3,680.9,732.1,681.6z"/>
	<path class="st7" d="M707.7,654l-9.5,5.5c5,8.1,12,14.1,20,17.9l4.7-9.9C716.7,664.5,711.4,659.8,707.7,654z"/>
	<path class="st9" d="M753.6,679.6l-3.4-10.4c-2.3,0.8-4.8,1.3-7.3,1.6l1.3,10.9C747.3,681.3,750.5,680.6,753.6,679.6z"/>
	<path class="st8" d="M762.4,675.7c7-4.1,12.6-9.7,16.6-16.1l-9.5-5.5c-4.5,7.1-11.3,12.5-19.4,15.2l3.4,10.4
		C756.6,678.6,759.6,677.3,762.4,675.7z"/>
	<path class="st6" d="M744.2,681.7l-1.3-10.9c-1.4,0.2-2.8,0.3-4.3,0.3c-1.7,0-3.4-0.1-5-0.3l-1.5,10.9
		C736.1,682.1,740.1,682.2,744.2,681.7z"/>
</g>
<polygon class="st11" points="859.3,409.6 861.7,410.5 839.3,462.1 "/>
<polygon class="st11" points="864.3,427.8 866.3,429.4 839.3,462.1 "/>
<polygon class="st11" points="868.8,438.7 870.3,440.8 839.3,462.1 "/>
<polygon class="st11" points="884.2,444.1 885,446.5 839.3,462.1 "/>
<polygon class="st11" points="876,458.3 876.1,460.9 839.3,462.1 "/>
<polygon class="st11" points="877.5,469.5 876.9,472 839.3,462.1 "/>
<polygon class="st12" points="858.8,421.7 861,422.8 839.3,462.1 "/>
<polygon class="st12" points="875,422 876.8,423.8 839.3,462.1 "/>
<polygon class="st12" points="870.8,441.6 872,443.9 839.3,462.1 "/>
<polygon class="st12" points="877,450.7 877.5,453.2 839.3,462.1 "/>
<polygon class="st12" points="884.9,462.1 884.7,464.7 839.3,462.1 "/>
<polygon class="st12" points="876.6,473.2 875.7,475.7 839.3,462.1 "/>
<polygon class="st13" points="880.3,466 879.9,468.6 839.3,462.1 "/>
<polygon class="st13" points="881.3,479.5 880.2,481.9 839.3,462.1 "/>
<polygon class="st11" points="762.4,574.7 764.8,575.6 740.1,633.8 "/>
<polygon class="st11" points="763.2,602.4 765.2,604 740.1,633.8 "/>
<polygon class="st11" points="781.7,602.6 783.2,604.7 740.1,633.8 "/>
<polygon class="st11" points="779,630.7 779.1,633.2 740.1,633.8 "/>
<polygon class="st12" points="759.9,592.7 762.2,593.9 740.1,633.8 "/>
<polygon class="st12" points="776.6,593.7 778.5,595.4 740.1,633.8 "/>
<polygon class="st13" points="776.9,637.8 776.5,640.3 740.1,633.8 "/>
<polygon class="st12" points="564.7,685.2 566.5,687 540.3,712.7 "/>
<polygon class="st12" points="577.2,712.3 577.1,714.8 540.3,712.7 "/>
<polygon class="st13" points="574.6,726.9 573.6,729.3 540.3,712.7 "/>
<circle cx="738.6" cy="634.5" r="36.5"/>
<circle cx="538.9" cy="713.2" r="36.5"/>
<ellipse transform="matrix(0.5 -0.866 0.866 0.5 18.0842 956.9836)" cx="837.8" cy="462.8" rx="37.7" ry="36.1"/>
<g>
	<circle class="st3" cx="738.6" cy="634.5" r="8.8"/>
</g>
<g>
	<path class="st3" d="M738.6,599.1c19.6,0,35.4,15.9,35.4,35.4S758.2,670,738.6,670c-19.6,0-35.4-15.9-35.4-35.4
		S719.1,599.1,738.6,599.1 M738.6,598.1c-20.1,0-36.4,16.3-36.4,36.4c0,20.1,16.3,36.4,36.4,36.4c20.1,0,36.4-16.3,36.4-36.4
		C775.1,614.4,758.7,598.1,738.6,598.1L738.6,598.1z"/>
</g>
<g>
	<path class="st3" d="M738.6,599.1c19.6,0,35.4,15.9,35.4,35.4S758.2,670,738.6,670c-19.6,0-35.4-15.9-35.4-35.4
		S719.1,599.1,738.6,599.1 M738.6,598.1c-20.1,0-36.4,16.3-36.4,36.4c0,20.1,16.3,36.4,36.4,36.4c20.1,0,36.4-16.3,36.4-36.4
		C775.1,614.4,758.7,598.1,738.6,598.1L738.6,598.1z"/>
</g>
<circle class="st3" cx="538.9" cy="713.3" r="25.6"/>
<circle class="st14" cx="538.9" cy="713.3" r="33.6"/>
<ellipse transform="matrix(0.5 -0.866 0.866 0.5 18.0842 956.9836)" class="st3" cx="837.8" cy="462.8" rx="20" ry="19.2"/>
<circle class="st1" cx="404.4" cy="425.3" r="3.7"/>
<circle class="st1" cx="438.1" cy="366.3" r="2.9"/>
<circle class="st1" cx="441.5" cy="365.8" r="1.5"/>
<circle class="st1" cx="402.7" cy="399.3" r="4.4"/>
<circle class="st2" cx="414.3" cy="378.5" r="5.1"/>
<circle class="st3" cx="423.6" cy="371.4" r="5.8"/>
<circle class="st2" cx="432.9" cy="367.5" r="2.2"/>
<circle class="st1" cx="435.8" cy="366.7" r="0.7"/>
<g>
	<path class="st9" d="M470.5,451.5c0.8-0.5,1.7-1,2.5-1.5l-6-9.2c-4.7,3.1-10.1,5.2-16,5.9l1.2,10.9
		C458.5,456.9,464.7,454.9,470.5,451.5z"/>
	<path class="st7" d="M415.9,429.9l-9.5,5.5c3.7,6,8.5,10.8,14,14.5l6-9.2C422.2,437.9,418.6,434.2,415.9,429.9z"/>
	<path class="st8" d="M487.2,435.4l-9.5-5.5c-2.7,4.3-6.4,8.1-10.7,10.9l6,9.2C478.9,446.1,483.7,441.1,487.2,435.4z"/>
	<path class="st10" d="M452.2,457.6l-1.2-10.9c-1.4,0.2-2.8,0.2-4.2,0.2c-7.5,0-14.6-2.3-20.4-6.2l-6,9.2
		C429.7,456.1,441,458.9,452.2,457.6z"/>
</g>
<polygon class="st12" points="477.2,377.5 479,379.2 448.2,409.7 "/>
<polygon class="st12" points="485.7,399.2 486.3,401.7 448.2,409.7 "/>
<polygon class="st12" points="487.3,410.2 487.2,412.8 448.2,409.7 "/>
<polygon class="st13" points="482.6,423.9 481.5,426.2 448.2,409.7 "/>
<circle cx="446.8" cy="410.4" r="36.5"/>
<circle class="st3" cx="446.7" cy="410.2" r="9.1"/>
<circle class="st1" cx="639.9" cy="329.8" r="3.7"/>
<circle class="st1" cx="673.6" cy="270.8" r="2.9"/>
<circle class="st1" cx="677.2" cy="270.6" r="1.5"/>
<circle class="st2" cx="638.2" cy="303.8" r="4.4"/>
<circle class="st3" cx="649.8" cy="283" r="5.1"/>
<circle class="st2" cx="659" cy="276" r="5.8"/>
<circle class="st1" cx="668.4" cy="272" r="2.2"/>
<circle class="st1" cx="671.2" cy="271.2" r="0.7"/>
<g>
	<path class="st7" d="M651.3,334.5l-9.5,5.5c3.3,5.3,7.5,9.8,12.2,13.3l6.4-8.9C656.9,341.7,653.7,338.3,651.3,334.5z"/>
	<path class="st9" d="M706,356.1c7-4.1,12.6-9.7,16.6-16.1l-9.5-5.5c-5.2,8.2-13.5,14.1-23.3,16.2l2.3,10.7
		C696.9,360.5,701.5,358.7,706,356.1z"/>
	<path class="st10" d="M692.1,361.5l-2.3-10.7c-2.5,0.5-5,0.8-7.6,0.8c-8.1,0-15.6-2.7-21.7-7.1l-6.4,8.9
		C664.9,361.2,678.8,364.3,692.1,361.5z"/>
</g>
<polygon class="st12" points="708.1,286.7 709.9,288.5 683.7,314.2 "/>
<polygon class="st12" points="716.7,293.6 718,295.8 683.7,314.2 "/>
<polygon class="st12" points="720.5,314.6 720.4,317.2 683.7,314.2 "/>
<circle cx="682.2" cy="314.9" r="36.5"/>
<circle class="st3" cx="682.2" cy="314.9" r="7.3"/>
<circle class="st3" cx="748.7" cy="176.4" r="3.7"/>
<circle class="st1" cx="782.4" cy="117.4" r="2.9"/>
<circle class="st2" cx="747" cy="150.4" r="4.4"/>
<circle class="st1" cx="758.6" cy="129.6" r="5.1"/>
<circle class="st1" cx="767.9" cy="122.6" r="5.8"/>
<circle class="st1" cx="777.2" cy="118.6" r="2.2"/>
<circle class="st1" cx="780.1" cy="117.8" r="0.7"/>
<path class="st9" d="M814.8,202.7c7-4.1,12.6-9.7,16.6-16.1l-9.5-5.5c-6.5,10.2-17.9,17-30.9,17c-13,0-24.4-6.8-30.9-17l-9.5,5.5
	C764.1,208.3,792.5,215.5,814.8,202.7z"/>
<polygon class="st12" points="823.7,141.3 824.9,143.5 792.6,160.8 "/>
<circle cx="791.1" cy="161.5" r="36.5"/>
<circle class="st3" cx="791.1" cy="161.5" r="9.1"/>
<circle class="st2" cx="476.7" cy="237.9" r="3.7"/>
<circle class="st1" cx="510.4" cy="178.9" r="2.9"/>
<circle class="st1" cx="513.8" cy="178.5" r="1.5"/>
<circle class="st2" cx="486.6" cy="191.2" r="5.1"/>
<circle class="st1" cx="495.8" cy="184.1" r="5.8"/>
<circle class="st1" cx="505.2" cy="180.1" r="2.2"/>
<circle class="st1" cx="508" cy="179.4" r="0.7"/>
<path class="st9" d="M542.8,264.2c7-4.1,12.6-9.7,16.6-16.1l-9.5-5.5c-6.5,10.2-17.9,17-30.9,17c-13,0-24.4-6.8-30.9-17l-9.5,5.5
	C492.1,269.8,520.5,277.1,542.8,264.2z"/>
<polygon class="st12" points="546.9,202.9 548.2,205.1 515.8,222.3 "/>
<circle class="st3" cx="475" cy="211.9" r="4.4"/>
<circle cx="519" cy="223" r="36.5"/>
<circle class="st3" cx="519" cy="223" r="9.1"/>
<polygon class="st11" points="595.8,475.7 598.4,475.9 591.7,532.4 "/>
<polygon class="st12" points="598.7,489.3 601.2,489.8 591.7,532.4 "/>
<polygon class="st11" points="630.3,432.5 632.6,433.5 591.7,532.4 "/>
<polygon class="st12" points="635.5,444.5 637.8,445.7 591.7,532.4 "/>
<polygon class="st11" points="620.2,494.1 622.2,495.7 591.7,532.4 "/>
<polygon class="st11" points="627.9,539.8 627.3,542.3 591.7,532.4 "/>
<polygon class="st12" points="635.7,484.3 637.6,486.1 591.7,532.4 "/>
<polygon class="st12" points="644.1,518.3 644.7,520.8 591.7,532.4 "/>
<polygon class="st12" points="639.6,547.6 638.8,550 591.7,532.4 "/>
<polygon class="st13" points="627.9,525.9 628.2,528.4 591.7,532.4 "/>
<polygon class="st13" points="628,547.5 627,549.9 591.7,532.4 "/>
<circle class="st1" cx="547.8" cy="548" r="3.7"/>
<circle class="st2" cx="581.5" cy="489" r="2.9"/>
<circle class="st1" cx="584.9" cy="488.6" r="1.5"/>
<circle class="st1" cx="548" cy="523.9" r="4.4"/>
<circle class="st1" cx="557.7" cy="501.3" r="5.1"/>
<circle class="st1" cx="566.9" cy="494.2" r="5.8"/>
<circle class="st2" cx="576.3" cy="490.2" r="2.2"/>
<circle class="st3" cx="579.1" cy="489.5" r="0.7"/>
<g>
	<path class="st10" d="M579.5,568.1c-5.5-1.7-10.4-4.6-14.5-8.4l-7.5,8c5.4,5.1,11.9,8.8,18.8,10.9L579.5,568.1z"/>
	<path class="st9" d="M613.9,574.3c0.3-0.2,0.6-0.4,0.9-0.6c-1.5-2.5-3.2-5.3-5.7-9.4c-5.5,3.4-12.1,5.4-19,5.4
		c-1.2,0-2.4-0.1-3.5-0.2l-1.1,10.9C595.1,581.3,605,579.4,613.9,574.3z"/>
	<path class="st7" d="M559.2,552.6l-9.5,5.5c2.2,3.6,4.8,6.8,7.8,9.5l7.5-8C562.8,557.6,560.9,555.2,559.2,552.6z"/>
	<path class="st6" d="M585.6,580.4l1.1-10.9c-2.5-0.2-4.8-0.7-7.1-1.4l-3.2,10.5C579.3,579.5,582.4,580.1,585.6,580.4z"/>
	<path class="st8" d="M630.5,558.1l-9.5-5.5c-3,4.7-7.1,8.7-11.8,11.7c2.5,4.1,4.2,6.9,5.7,9.4C621.4,569.7,626.7,564.3,630.5,558.1
		z"/>
</g>
<circle cx="590.2" cy="533.1" r="36.5"/>
<g>
	<path class="st3" d="M590.2,511.2c12.1,0,21.9,9.8,21.9,21.9s-9.8,21.9-21.9,21.9s-21.9-9.8-21.9-21.9S578.1,511.2,590.2,511.2
		 M590.2,510.2c-12.6,0-22.9,10.3-22.9,22.9s10.3,22.9,22.9,22.9s22.9-10.3,22.9-22.9S602.9,510.2,590.2,510.2L590.2,510.2z"/>
</g>
<g>
	<circle class="st3" cx="590.2" cy="533.1" r="4.7"/>
</g>
<circle class="st1" cx="786.1" cy="117.2" r="1.5"/>
</svg>
