<!-- Generator: Adobe Illustrator 24.0.3, SVG Export Plug-In  -->
<svg version="1.1" xmlns="http://www.w3.org/2000/svg" xmlns:xlink="http://www.w3.org/1999/xlink" x="0px" y="0px"
	 width="1256.21px" height="850.39px" viewBox="0 0 1256.21 850.39" style="enable-background:new 0 0 1256.21 850.39;"
	 xml:space="preserve">
<style type="text/css">
	.st0{fill:#36A9E1;}
	.st1{fill:none;stroke:#EB8535;stroke-width:3;stroke-miterlimit:10;}
	.st2{fill:none;stroke:#FFFFFF;stroke-width:2;stroke-miterlimit:10;}
	.st3{fill:none;stroke:#FFDE00;stroke-width:3;stroke-miterlimit:10;}
	.st4{fill:none;stroke:#E30613;stroke-width:3;stroke-miterlimit:10;}
	.st5{fill:none;stroke:#36A9E1;stroke-width:3;stroke-miterlimit:10;}
	.st6{fill:none;stroke:#7D4E24;stroke-width:3;stroke-miterlimit:10;}
	.st7{fill:none;stroke:#432918;stroke-width:3;stroke-miterlimit:10;}
	.st8{fill:none;stroke:#FFFFFF;stroke-miterlimit:10;}
	.st9{fill:none;stroke:#CA9E67;stroke-width:3;stroke-miterlimit:10;}
	.st10{fill:none;stroke:#A48A7B;stroke-width:3;stroke-miterlimit:10;}
</style>
<defs>
</defs>
<rect x="689.28" width="566.93" height="850.39"/>
<rect width="566.93" height="850.39"/>
<path class="st0" d="M355.64,496.89l35.25,20.35v-40.7C375.82,476.54,362.67,484.73,355.64,496.89L355.64,496.89z"/>
<circle class="st1" cx="390.89" cy="517.24" r="40.7"/>
<g>
	<polyline class="st2" points="390.89,557.95 390.89,366.29 263.11,366.29 	"/>
	<polyline class="st2" points="390.89,557.95 390.89,334.34 135.34,334.34 	"/>
	<polyline class="st2" points="390.89,557.95 390.89,302.4 295.06,302.4 	"/>
	<polyline class="st2" points="390.89,557.95 390.89,238.51 135.34,238.51 	"/>
	<polyline class="st2" points="390.89,557.95 390.89,206.57 167.28,206.57 	"/>
</g>
<polyline class="st3" points="991.3,303.74 1044.69,245.49 1067.17,305.1 1073.33,352.03 1099.06,377.79 1108.68,410.48 "/>
<path class="st4" d="M869.04,275.99c-5.59,4.42-10.99,9.22-16.16,14.38"/>
<path class="st4" d="M866.21,303.69c29.8-29.8,68.17-45.8,107.18-48.02"/>
<path class="st4" d="M973.39,255.68c-39.01,2.22-77.38,18.22-107.18,48.02"/>
<path class="st4" d="M879.54,317.02c26.12-26.12,59.67-40.27,93.85-42.47"/>
<path class="st4" d="M973.39,274.55c-34.18,2.2-67.73,16.35-93.85,42.47"/>
<path class="st4" d="M892.86,330.35c22.44-22.44,51.18-34.74,80.53-36.91"/>
<path class="st4" d="M973.39,293.44c-29.35,2.17-58.09,14.47-80.53,36.91"/>
<path class="st4" d="M906.19,343.67c18.76-18.76,42.69-29.2,67.2-31.32"/>
<path class="st5" d="M892.86,330.35"/>
<path class="st5" d="M892.86,330.35c-9.84,9.84-17.74,20.9-23.68,32.68"/>
<path class="st5" d="M874.87,410.87c2.13-24.51,12.56-48.44,31.32-67.2"/>
<line class="st6" x1="1040.84" y1="491.9" x2="1040.84" y2="346.92"/>
<line class="st7" x1="1024.25" y1="502.39" x2="1024.25" y2="336.42"/>
<g>
	<path class="st8" d="M904.99,496.81c-18.81-18.82-29.27-42.82-31.4-67.4l-75.77-0.01c2.24,43.96,20.13,87.28,53.71,120.87
		c33.57,33.58,76.88,51.5,120.85,53.75l0.01-75.77C947.79,526.1,923.8,515.63,904.99,496.81z"/>
	<path class="st8" d="M1059.44,496.92c-18.76,18.76-42.69,29.2-67.2,31.32l0,75.55c43.84-2.24,87.02-20.09,120.51-53.57
		c33.48-33.48,51.33-76.67,53.57-120.51l-75.55,0C1088.64,454.23,1078.2,478.16,1059.44,496.92z"/>
	<path class="st8" d="M908.1,472.97c8.57,12.04,19.95,21.93,33.19,28.73"/>
	<path class="st8" d="M941.28,337.11c-13.23,6.8-24.62,16.69-33.19,28.73"/>
	<path class="st8" d="M908.1,365.84c-10.76,15.11-17.09,33.6-17.09,53.57c0,19.97,6.33,38.45,17.09,53.57"/>
	<path class="st8" d="M941.28,501.7c10.12,5.2,21.33,8.58,33.19,9.72"/>
	<path class="st8" d="M974.47,327.39c-11.86,1.14-23.07,4.53-33.19,9.72"/>
	<path class="st8" d="M1040.84,491.9c21.36-16.93,35.07-43.11,35.07-72.49s-13.71-55.55-35.07-72.49"/>
	<path class="st8" d="M1040.84,346.92c-5.12-4.06-10.68-7.58-16.59-10.5"/>
	<path class="st8" d="M1024.25,502.39c5.92-2.91,11.47-6.44,16.59-10.49"/>
	<path class="st8" d="M1024.25,336.42c-12.3-6.06-26.15-9.47-40.79-9.47c-3.03,0-6.03,0.15-8.99,0.44"/>
	<path class="st8" d="M974.47,511.42c2.96,0.29,5.96,0.44,8.99,0.44c14.64,0,28.49-3.41,40.79-9.47"/>
</g>
<line class="st9" x1="974.47" y1="327.39" x2="974.47" y2="511.42"/>
<line class="st6" x1="941.28" y1="337.11" x2="941.28" y2="501.7"/>
<line class="st10" x1="908.1" y1="472.97" x2="908.1" y2="365.84"/>
</svg>
