<!-- Generator: Adobe Illustrator 24.0.3, SVG Export Plug-In  -->
<svg version="1.1" xmlns="http://www.w3.org/2000/svg" xmlns:xlink="http://www.w3.org/1999/xlink" x="0px" y="0px" width="566.9px"
	 height="850.4px" viewBox="0 0 566.9 850.4" style="enable-background:new 0 0 566.9 850.4;" xml:space="preserve">
<style type="text/css">
	.st0{opacity:0.3;}
	.st1{opacity:0.4;fill:none;stroke:#FFFFFF;stroke-width:2;stroke-miterlimit:10;}
	.st2{fill:none;stroke:#FFFFFF;stroke-width:2;stroke-miterlimit:10;}
	.st3{fill:#FFFFFF;}
	.st4{fill:#2B6AB0;}
	.st5{fill:#2D2E83;}
	.st6{fill:#36A9E1;}
	.st7{fill:#2B8AC9;}
	.st8{fill:#2E4B97;}
	.st9{fill:#E30613;stroke:#E30613;stroke-width:4;stroke-miterlimit:10;}
	.st10{fill:#95C11F;stroke:#95C11F;stroke-width:4;stroke-miterlimit:10;}
	.st11{fill:#008D36;stroke:#008D36;stroke-width:4;stroke-miterlimit:10;}
</style>
<defs>
</defs>
<rect width="566.9" height="850.4"/>
<g class="st0">
	<circle class="st1" cx="163.4" cy="313.6" r="12.6"/>
	<circle class="st1" cx="397.4" cy="312.4" r="10.1"/>
	<circle class="st1" cx="404.5" cy="321.8" r="5"/>
	<circle class="st1" cx="238.1" cy="263.6" r="15.1"/>
	<circle class="st1" cx="319.8" cy="262.6" r="17.6"/>
</g>
<circle class="st2" cx="356.9" cy="278" r="20.1"/>
<circle class="st3" cx="384.8" cy="299" r="7.5"/>
<circle class="st2" cx="391.9" cy="306.2" r="2.5"/>
<g>
	<path class="st4" d="M123.6,459.6l36.2-10.5c-0.9-3.1-1.7-6.3-2.3-9.5l-36.9,7.7C121.4,451.4,122.4,455.5,123.6,459.6z"/>
	<path class="st5" d="M169.4,355.9l-32.6-18.8c-12.4,23.1-18.7,47.9-19.5,72.5l37.7,0.9C155.6,391.5,160.5,372.8,169.4,355.9z"/>
	<path class="st6" d="M199,556.1c24.2,14,50.6,21.1,76.7,21.8l0-37.9c-28-1.1-55.3-11.7-76.9-30.2l-24.7,28.6
		C181.7,545,190,550.9,199,556.1z"/>
	<path class="st7" d="M174.1,538.4l24.7-28.6c-10.5-9-19.7-19.9-27-32.6c-5.2-9.1-9.2-18.6-12-28.2l-36.2,10.5
		C132.2,489.6,149.4,517.2,174.1,538.4z"/>
	<path class="st8" d="M157.5,439.6c-2-9.7-2.8-19.4-2.5-29.1l-37.7-0.9c-0.4,12.7,0.7,25.4,3.3,37.7L157.5,439.6z"/>
</g>
<polygon class="st9" points="470.3,386.2 471.5,394.9 285.4,417.3 "/>
<polygon class="st9" points="426.2,433 424.9,441.7 285.4,417.3 "/>
<polygon class="st9" points="402,465.6 398.4,473.6 285.4,417.3 "/>
<polygon class="st9" points="412.3,521.2 406.5,527.9 285.4,417.3 "/>
<polygon class="st9" points="357.7,521.4 350.3,526.1 285.4,417.3 "/>
<polygon class="st9" points="327.8,545.4 319.3,547.9 285.4,417.3 "/>
<polygon class="st10" points="434.5,405.7 434.9,414.5 285.4,417.3 "/>
<polygon class="st10" points="460.6,455.2 458.5,463.7 285.4,417.3 "/>
<polygon class="st10" points="396.9,476.5 392.5,484.1 285.4,417.3 "/>
<polygon class="st10" points="381.1,511.1 374.7,517.2 285.4,417.3 "/>
<polygon class="st10" points="361.4,554.8 353.6,558.8 285.4,417.3 "/>
<polygon class="st10" points="315.5,549.1 306.8,550.8 285.4,417.3 "/>
<polygon class="st11" points="342.5,547.6 334.3,550.8 285.4,417.3 "/>
<polygon class="st11" points="305,574.2 296.3,575 285.4,417.3 "/>
<circle cx="280.8" cy="414.1" r="125.8"/>
<circle class="st3" cx="280.8" cy="414.1" r="66.6"/>
</svg>
