<!-- Generator: Adobe Illustrator 24.0.3, SVG Export Plug-In  -->
<svg version="1.1" xmlns="http://www.w3.org/2000/svg" xmlns:xlink="http://www.w3.org/1999/xlink" x="0px" y="0px" width="80.8px"
	 height="28px" viewBox="0 0 80.8 28" style="enable-background:new 0 0 80.8 28;" xml:space="preserve">
<style type="text/css">
	.st0{fill:#2B8AC9;}
	.st1{fill:#2D2E83;}
	.st2{fill:#36A9E1;}
	.st3{fill:#2E4B97;}
</style>
<defs>
</defs>
<g>
	<path class="st0" d="M64.1,21.6c0.8-0.5,1.7-1,2.5-1.5l-6-9.2c-4.7,3.1-10.1,5.2-16,5.9l1.2,10.9C52.1,27,58.3,25,64.1,21.6z"/>
	<path class="st1" d="M9.5,0L0,5.5c3.7,6,8.5,10.8,14,14.5l6-9.2C15.8,8,12.2,4.3,9.5,0z"/>
	<path class="st2" d="M80.8,5.5L71.3,0c-2.7,4.3-6.4,8.1-10.7,10.9l6,9.2C72.5,16.2,77.3,11.2,80.8,5.5z"/>
	<path class="st3" d="M45.8,27.7l-1.2-10.9c-1.4,0.2-2.8,0.2-4.2,0.2c-7.5,0-14.6-2.3-20.4-6.2L14,20C23.3,26.2,34.6,29,45.8,27.7z"
		/>
</g>
</svg>
